<?xml version="1.0"?>
<svg version="1.1" xmlns="http://www.w3.org/2000/svg" width="400px" height="200px" style="border: dashed 2px #aaa">
    <path fill="#"
        d="M139.220703125,189.94140625l-22.6318359375,0l0-46.2158203125l-42.4072265625,0l0,46.2158203125l-22.705078125,0l0-107.080078125l22.705078125,0l0,41.9677734375l42.4072265625,0l0-41.9677734375l22.6318359375,0l0,107.080078125z M176.55737304688,189.94140625l0-107.080078125l22.705078125,0l0,107.080078125l-22.705078125,0z M236.52587890625,189.94140625l0-107.080078125l22.705078125,0l0,107.080078125l-22.705078125,0z M337.80297851562,189.94140625l-22.705078125,0l0-88.18359375l-29.0771484375,0l0-18.896484375l80.859375,0l0,18.896484375l-29.0771484375,0l0,88.18359375z" />
    <path fill="#" d="" />
</svg>